<svg xmlns="http://www.w3.org/2000/svg" viewBox="0 0 1200 120" width="1200" height="120" role="img" aria-label="Validation and development: 22 strict checks plus a six-sample public smoke test"><defs><linearGradient id="bg" x1="0" y1="0" x2="1" y2="1">
<stop offset="0%" stop-color="#1D2621"/><stop offset="55%" stop-color="#22302A"/><stop offset="100%" stop-color="#285F47"/></linearGradient></defs><style>
.flow{stroke-dasharray:4 14;animation:flow 1.6s linear infinite}
@keyframes flow{to{stroke-dashoffset:-36}}
@media (prefers-reduced-motion:reduce){.flow{animation:none}}
</style><rect width="1200" height="120" rx="12" fill="url(#bg)"/><rect x="28" y="30" width="6" height="60" rx="3" fill="#4E8F78"/><text x="52" y="52" font-family="Helvetica Neue, Helvetica, Arial, sans-serif" font-size="15" font-weight="700" letter-spacing="2.4" fill="#4E8F78">VALIDATION AND DEVELOPMENT</text><text x="52" y="84" font-family="Helvetica Neue, Helvetica, Arial, sans-serif" font-size="22" fill="#E8F0EC">22 strict checks plus a six-sample public smoke test</text><g transform="translate(780,26)"><rect x="0" y="0" width="26" height="26" rx="6" fill="#285F47" stroke="#4E8F78"/><polyline points="7,13 11.5,18 19.5,8" fill="none" stroke="#E8F0EC" stroke-width="2.4" stroke-linecap="round" stroke-linejoin="round"/><rect x="34" y="0" width="26" height="26" rx="6" fill="#285F47" stroke="#4E8F78"/><polyline points="41,13 45.5,18 53.5,8" fill="none" stroke="#E8F0EC" stroke-width="2.4" stroke-linecap="round" stroke-linejoin="round"/><rect x="68" y="0" width="26" height="26" rx="6" fill="#285F47" stroke="#4E8F78"/><polyline points="75,13 79.5,18 87.5,8" fill="none" stroke="#E8F0EC" stroke-width="2.4" stroke-linecap="round" stroke-linejoin="round"/><rect x="102" y="0" width="26" height="26" rx="6" fill="#285F47" stroke="#4E8F78"/><polyline points="109,13 113.5,18 121.5,8" fill="none" stroke="#E8F0EC" stroke-width="2.4" stroke-linecap="round" stroke-linejoin="round"/><rect x="136" y="0" width="26" height="26" rx="6" fill="#285F47" stroke="#4E8F78"/><polyline points="143,13 147.5,18 155.5,8" fill="none" stroke="#E8F0EC" stroke-width="2.4" stroke-linecap="round" stroke-linejoin="round"/><rect x="170" y="0" width="26" height="26" rx="6" fill="#285F47" stroke="#4E8F78"/><polyline points="177,13 181.5,18 189.5,8" fill="none" stroke="#E8F0EC" stroke-width="2.4" stroke-linecap="round" stroke-linejoin="round"/><rect x="204" y="0" width="26" height="26" rx="6" fill="#285F47" stroke="#4E8F78"/><polyline points="211,13 215.5,18 223.5,8" fill="none" stroke="#E8F0EC" stroke-width="2.4" stroke-linecap="round" stroke-linejoin="round"/><rect x="238" y="0" width="26" height="26" rx="6" fill="#285F47" stroke="#4E8F78"/><polyline points="245,13 249.5,18 257.5,8" fill="none" stroke="#E8F0EC" stroke-width="2.4" stroke-linecap="round" stroke-linejoin="round"/><rect x="272" y="0" width="26" height="26" rx="6" fill="#285F47" stroke="#4E8F78"/><polyline points="279,13 283.5,18 291.5,8" fill="none" stroke="#E8F0EC" stroke-width="2.4" stroke-linecap="round" stroke-linejoin="round"/><rect x="306" y="0" width="26" height="26" rx="6" fill="#285F47" stroke="#4E8F78"/><polyline points="313,13 317.5,18 325.5,8" fill="none" stroke="#E8F0EC" stroke-width="2.4" stroke-linecap="round" stroke-linejoin="round"/><rect x="340" y="0" width="26" height="26" rx="6" fill="#285F47" stroke="#4E8F78"/><polyline points="347,13 351.5,18 359.5,8" fill="none" stroke="#E8F0EC" stroke-width="2.4" stroke-linecap="round" stroke-linejoin="round"/><rect x="0" y="36" width="26" height="26" rx="6" fill="#285F47" stroke="#4E8F78"/><polyline points="7,49 11.5,54 19.5,44" fill="none" stroke="#E8F0EC" stroke-width="2.4" stroke-linecap="round" stroke-linejoin="round"/><rect x="34" y="36" width="26" height="26" rx="6" fill="#285F47" stroke="#4E8F78"/><polyline points="41,49 45.5,54 53.5,44" fill="none" stroke="#E8F0EC" stroke-width="2.4" stroke-linecap="round" stroke-linejoin="round"/><rect x="68" y="36" width="26" height="26" rx="6" fill="#285F47" stroke="#4E8F78"/><polyline points="75,49 79.5,54 87.5,44" fill="none" stroke="#E8F0EC" stroke-width="2.4" stroke-linecap="round" stroke-linejoin="round"/><rect x="102" y="36" width="26" height="26" rx="6" fill="#285F47" stroke="#4E8F78"/><polyline points="109,49 113.5,54 121.5,44" fill="none" stroke="#E8F0EC" stroke-width="2.4" stroke-linecap="round" stroke-linejoin="round"/><rect x="136" y="36" width="26" height="26" rx="6" fill="#285F47" stroke="#4E8F78"/><polyline points="143,49 147.5,54 155.5,44" fill="none" stroke="#E8F0EC" stroke-width="2.4" stroke-linecap="round" stroke-linejoin="round"/><rect x="170" y="36" width="26" height="26" rx="6" fill="#285F47" stroke="#4E8F78"/><polyline points="177,49 181.5,54 189.5,44" fill="none" stroke="#E8F0EC" stroke-width="2.4" stroke-linecap="round" stroke-linejoin="round"/><rect x="204" y="36" width="26" height="26" rx="6" fill="#285F47" stroke="#4E8F78"/><polyline points="211,49 215.5,54 223.5,44" fill="none" stroke="#E8F0EC" stroke-width="2.4" stroke-linecap="round" stroke-linejoin="round"/><rect x="238" y="36" width="26" height="26" rx="6" fill="#285F47" stroke="#4E8F78"/><polyline points="245,49 249.5,54 257.5,44" fill="none" stroke="#E8F0EC" stroke-width="2.4" stroke-linecap="round" stroke-linejoin="round"/><rect x="272" y="36" width="26" height="26" rx="6" fill="#285F47" stroke="#4E8F78"/><polyline points="279,49 283.5,54 291.5,44" fill="none" stroke="#E8F0EC" stroke-width="2.4" stroke-linecap="round" stroke-linejoin="round"/><rect x="306" y="36" width="26" height="26" rx="6" fill="#285F47" stroke="#4E8F78"/><polyline points="313,49 317.5,54 325.5,44" fill="none" stroke="#E8F0EC" stroke-width="2.4" stroke-linecap="round" stroke-linejoin="round"/><rect x="340" y="36" width="26" height="26" rx="6" fill="#285F47" stroke="#4E8F78"/><polyline points="347,49 351.5,54 359.5,44" fill="none" stroke="#E8F0EC" stroke-width="2.4" stroke-linecap="round" stroke-linejoin="round"/></g></svg>